
General

Complete name                 : WWE.NXT.10.4.2011.MM.H.264.Mp4-By.Snaw90.mp4
Format                               : MPEG-4
Format profile                    : Base Media
File size                             : 338 MiB
Duration                             : 33mn 48s
Language                           : Italian
Overall bit rate                    : 1 398 Kbps
Writing application              : Lavf52.78.3

Video
Format                                : AVC
Duration                              : 33mn 48s
Width                                  : 720 pixels
Height                                 : 576 pixels
Display aspect ratio            : 5:4
Standard                             : PAL
Color space                        : YUV
Stream size                        : 300 MiB (89%)
Writing library                     : x264 core 106 r1732 b20059a


Audio
Format                                : AAC
Duration                              : 33mn 48s
Bit rate                                : 152 Kbps
Channel(s)                          : 2 channels
Sampling rate                     : 44.1 KHz
Stream size                        : 36.7 MiB